<?xml version="1.0" encoding="UTF-8" standalone="no"?>
<!DOCTYPE svg PUBLIC "-//W3C//DTD SVG 1.1//EN" "http://www.w3.org/Graphics/SVG/1.1/DTD/svg11.dtd">
<svg width="100%" height="100%" viewBox="0 0 2481 2481" version="1.1" xmlns="http://www.w3.org/2000/svg" xmlns:xlink="http://www.w3.org/1999/xlink" xml:space="preserve" xmlns:serif="http://www.serif.com/" style="fill-rule:evenodd;clip-rule:evenodd;stroke-linejoin:round;stroke-miterlimit:2;">
    <g transform="matrix(108.762,0,0,108.762,-73070.5,-113243)">
        <clipPath id="_clip1">
            <path d="M684.598,1059.96L689.237,1052.56L684.842,1045.51C684.647,1045.25 684.493,1045.03 684.379,1044.85C684.265,1044.67 684.163,1044.46 684.073,1044.22C683.984,1043.99 683.939,1043.72 683.939,1043.41C683.939,1042.85 684.167,1042.37 684.623,1041.97C685.078,1041.56 685.599,1041.36 686.185,1041.36C687.146,1041.36 688.065,1042.02 688.944,1043.36L693.387,1050.1C693.762,1050.67 694.038,1051.13 694.217,1051.48C694.397,1051.83 694.486,1052.2 694.486,1052.61C694.486,1053.08 694.12,1053.87 693.387,1054.95L689.091,1061.5C688.505,1062.39 687.996,1063 687.565,1063.33C687.133,1063.65 686.674,1063.82 686.185,1063.82C685.55,1063.82 685.009,1063.61 684.562,1063.21C684.114,1062.8 683.89,1062.3 683.89,1061.69C683.89,1061.14 684.126,1060.56 684.598,1059.96ZM673.392,1059.96L678.031,1052.56L673.636,1045.51C673.474,1045.25 673.323,1045.01 673.185,1044.81C673.046,1044.61 672.937,1044.38 672.855,1044.14C672.774,1043.89 672.733,1043.65 672.733,1043.41C672.733,1042.85 672.961,1042.37 673.417,1041.97C673.872,1041.56 674.393,1041.36 674.979,1041.36C675.907,1041.36 676.81,1042.02 677.689,1043.36L682.181,1050.1C682.881,1051.12 683.231,1051.96 683.231,1052.61C683.231,1053.12 682.881,1053.9 682.181,1054.95L677.884,1061.5C677.299,1062.39 676.79,1063 676.359,1063.33C675.927,1063.65 675.467,1063.82 674.979,1063.82C674.328,1063.82 673.783,1063.61 673.343,1063.19C672.904,1062.78 672.684,1062.28 672.684,1061.69C672.684,1061.2 672.92,1060.63 673.392,1059.96Z" clip-rule="nonzero"/>
        </clipPath>
        <g clip-path="url(#_clip1)">
            <g transform="matrix(50,0,0,50,668.387,1065.36)">
                <path d="M0.324,-0.108L0.417,-0.256L0.329,-0.397C0.325,-0.402 0.322,-0.407 0.32,-0.41C0.318,-0.414 0.316,-0.418 0.314,-0.423C0.312,-0.427 0.311,-0.433 0.311,-0.439C0.311,-0.45 0.316,-0.46 0.325,-0.468C0.334,-0.476 0.344,-0.48 0.356,-0.48C0.375,-0.48 0.394,-0.467 0.411,-0.44L0.5,-0.305C0.507,-0.294 0.513,-0.285 0.517,-0.278C0.52,-0.271 0.522,-0.263 0.522,-0.255C0.522,-0.245 0.515,-0.23 0.5,-0.208L0.414,-0.077C0.402,-0.059 0.392,-0.047 0.384,-0.041C0.375,-0.034 0.366,-0.031 0.356,-0.031C0.343,-0.031 0.332,-0.035 0.323,-0.043C0.315,-0.051 0.31,-0.061 0.31,-0.073C0.31,-0.084 0.315,-0.096 0.324,-0.108ZM0.1,-0.108L0.193,-0.256L0.105,-0.397C0.102,-0.402 0.099,-0.407 0.096,-0.411C0.093,-0.415 0.091,-0.419 0.089,-0.424C0.088,-0.429 0.087,-0.434 0.087,-0.439C0.087,-0.45 0.091,-0.46 0.101,-0.468C0.11,-0.476 0.12,-0.48 0.132,-0.48C0.15,-0.48 0.168,-0.467 0.186,-0.44L0.276,-0.305C0.29,-0.285 0.297,-0.268 0.297,-0.255C0.297,-0.245 0.29,-0.229 0.276,-0.208L0.19,-0.077C0.178,-0.059 0.168,-0.047 0.159,-0.041C0.151,-0.034 0.142,-0.031 0.132,-0.031C0.119,-0.031 0.108,-0.035 0.099,-0.043C0.09,-0.052 0.086,-0.062 0.086,-0.073C0.086,-0.083 0.091,-0.095 0.1,-0.108Z" style="fill-rule:nonzero;"/>
            </g>
            <g transform="matrix(0.0142373,0,0,0.0142373,668.876,1036.44)">
                <path d="M1222.63,1125.22L1064.87,1284.7L132.027,1948.32L241.774,1696.25L979.134,1250.4C743.636,1129.22 536.147,936.596 356.665,672.518L512.711,511.328C678.474,786.837 915.116,991.469 1222.63,1125.22Z" style="fill:rgb(74,177,38);"/>
            </g>
            <g transform="matrix(0.0142373,0,0,0.0142373,668.876,1036.44)">
                <path d="M1987.43,1125.22L1829.67,1284.7L896.824,1948.32L1006.57,1696.25L1745.65,1250.4C1506.72,1128.08 1298.66,935.453 1121.46,672.518L1277.51,511.328C1440.99,786.837 1677.63,991.469 1987.43,1125.22Z" style="fill:rgb(74,177,38);"/>
            </g>
            <g transform="matrix(0.0142373,0,0,0.0142373,668.876,1036.44)">
                <path d="M1104.31,1651.66L1430.12,1132.08L1121.46,636.507C1107.74,618.216 1096.88,602.783 1088.88,590.208C1080.88,577.633 1073.73,563.057 1067.45,546.481C1061.16,529.904 1058.02,510.756 1058.02,489.035C1058.02,450.167 1074.02,416.442 1106.03,387.863C1138.04,359.283 1174.62,344.993 1215.78,344.993C1283.22,344.993 1347.82,391.864 1409.55,485.606L1721.64,958.888C1747.93,998.9 1767.37,1031.19 1779.94,1055.77C1792.52,1080.35 1798.81,1106.93 1798.81,1135.51C1798.81,1168.66 1773.08,1223.54 1721.64,1300.13L1419.84,1759.7C1378.68,1822.57 1342.96,1865.44 1312.66,1888.31C1282.37,1911.17 1250.07,1922.6 1215.78,1922.6C1171.19,1922.6 1133.18,1908.31 1101.74,1879.73C1070.3,1851.15 1054.59,1815.71 1054.59,1773.41C1054.59,1734.55 1071.16,1693.96 1104.31,1651.66Z" style="fill:rgb(74,177,38);"/>
            </g>
            <g transform="matrix(0.0142373,0,0,0.0142373,668.876,1036.44)">
                <path d="M317.225,1651.66L643.035,1132.08L334.373,636.507C322.941,618.216 312.366,601.926 302.649,587.636C292.932,573.346 285.215,557.627 279.499,540.479C273.784,523.331 270.926,506.183 270.926,489.035C270.926,450.167 286.93,416.442 318.94,387.863C350.949,359.283 387.531,344.993 428.686,344.993C493.848,344.993 557.296,391.864 619.028,485.606L934.55,958.888C983.707,1030.91 1008.29,1089.78 1008.29,1135.51C1008.29,1170.95 983.707,1225.82 934.55,1300.13L632.747,1759.7C591.592,1822.57 555.867,1865.44 525.572,1888.31C495.277,1911.17 462.982,1922.6 428.686,1922.6C382.959,1922.6 344.662,1908.03 313.795,1878.87C282.929,1849.72 267.496,1814.57 267.496,1773.41C267.496,1739.12 284.072,1698.54 317.225,1651.66Z" style="fill:rgb(74,177,38);"/>
            </g>
        </g>
    </g>
</svg>
